<?xml version="1.0" encoding="utf-8"?>
<!-- Generator: Adobe Illustrator 25.0.0, SVG Export Plug-In . SVG Version: 6.00 Build 0)  -->
<svg version="1.1" id="Layer_1" xmlns="http://www.w3.org/2000/svg" xmlns:xlink="http://www.w3.org/1999/xlink" x="0px" y="0px"
	 viewBox="0 0 1013.4 900" style="enable-background:new 0 0 1013.4 900;" xml:space="preserve">
<style type="text/css">
	.st0{fill:#FFFFFF;}
</style>
<g>
	<path class="st0" d="M868.63,0H144.77C65.15,0,0,65.15,0,144.77v470.51c0,79.62,65.15,144.77,144.77,144.77h36.2
		c0,0,0,54.51-0.01,103.69c0,30.68,35.79,47.45,59.36,27.8l157.79-131.5h470.51c79.62,0,144.77-65.15,144.77-144.77V144.77
		C1013.4,65.15,948.25,0,868.63,0z M253.35,434.31c-39.98,0-72.39-32.41-72.39-72.39s32.41-72.39,72.39-72.39
		c39.98,0,72.39,32.41,72.39,72.39S293.33,434.31,253.35,434.31z M506.7,434.31c-39.98,0-72.39-32.41-72.39-72.39
		s32.41-72.39,72.39-72.39c39.98,0,72.39,32.41,72.39,72.39S546.68,434.31,506.7,434.31z M760.05,434.31
		c-39.98,0-72.39-32.41-72.39-72.39s32.41-72.39,72.39-72.39c39.98,0,72.39,32.41,72.39,72.39S800.03,434.31,760.05,434.31z"/>
</g>
</svg>
