<?xml version="1.0" encoding="utf-8"?>
<!-- Generator: Adobe Illustrator 25.0.0, SVG Export Plug-In . SVG Version: 6.00 Build 0)  -->
<svg version="1.1" id="Layer_1" xmlns="http://www.w3.org/2000/svg" xmlns:xlink="http://www.w3.org/1999/xlink" x="0px" y="0px"
	 viewBox="0 0 930.55 930.55" style="enable-background:new 0 0 930.55 930.55;" xml:space="preserve">
<style type="text/css">
	.st0{fill:#FFFFFF;}
</style>
<path class="st0" d="M915.14,332.06c-13.23-51.07-34.27-98.69-66.09-141.17c-10.95-18.3-25.02-34.17-39.75-49.36
	C730.12,59.87,633.12,14.8,520.52,3.09C411.51-8.25,308.57,11.21,213.84,67.8c-52.59,31.42-97.31,71.66-131.88,122.63c0,0,0,0,0,0
	c0,0,0,0,0,0c-2.09,2.73-4.35,5.34-6.25,8.19C15.89,288.28-6.03,387.46,2.5,493.95c2.2,27.51,6.11,54.96,15.45,81.25
	c4.75,26.15,15.26,50.36,26.73,73.95c24.29,49.95,56.76,94.12,98.18,131.36c11.06,9.94,16.48,21.51,16.55,36.48
	c0.12,23.89,1.31,47.78,2.02,71.67c0.98,32.96,26.2,48.93,56.59,35.67c28.59-12.47,57.15-25.01,85.61-37.77
	c9.61-4.31,19.19-5.03,29.26-2.36c71.83,19.08,144.52,22.85,217.71,10.18c121.83-21.09,221.63-79.12,295.82-179.11
	c30.75-41.45,50.53-88.17,65.65-137.11c0,0,0,0,0,0c0.72-1.73,1.66-3.41,2.14-5.21C935.55,492.73,935.93,412.35,915.14,332.06z
	 M742.7,343.32c-1.09,3.32-2.99,6.25-4.86,9.18c-43.62,68.22-86.25,137.07-129.89,205.28c-2.52,3.94-5.15,7.82-5.68,12.45
	c-3.77-0.17-5.98,2.85-8.53,5.05c-26.15,22.56-58.35,23.89-85.89,3.48c-11.47-8.5-22.86-17.1-34.28-25.67
	c-22.54-16.89-44.98-33.91-67.63-50.65c-18.78-13.88-29.52-13.74-48.09-0.02c-5.27,3.9-10.45,7.93-15.67,11.9
	c-41.13,31.31-82.17,62.75-123.65,93.61c-9.36,6.96-17.64,7.25-25.56,1.6c-7.38-5.26-9.57-14.45-5.95-25.06
	c0.84-2.45,2.54-4.65,2.66-7.31c5.85-2.87,8.81-8.39,12.08-13.64c40.41-64.78,81.52-129.12,121.9-193.91
	c23.92-38.37,72.06-40.91,100.68-18.29c32.37,25.58,65.85,49.75,98.92,74.44c19.71,14.71,31.67,14.93,51.06,0.15
	c41.71-31.8,83.5-63.5,125.37-95.09c5.23-3.94,9.92-8.66,15.85-11.58c7.84-3.87,15.73-4.35,22.7,1.75
	C745.27,327.15,745.41,335.06,742.7,343.32z"/>
</svg>
