<?xml version="1.0" encoding="utf-8"?>
<!-- Generator: Adobe Illustrator 25.0.0, SVG Export Plug-In . SVG Version: 6.00 Build 0)  -->
<svg version="1.1" id="Layer_1" xmlns="http://www.w3.org/2000/svg" xmlns:xlink="http://www.w3.org/1999/xlink" x="0px" y="0px"
	 viewBox="0 0 930.55 930.55" style="enable-background:new 0 0 930.55 930.55;" xml:space="preserve">
<style type="text/css">
	.st0{fill:#FFFFFF;}
</style>
<g>
	<path class="st0" d="M465.28,0C208.21,0,0,208.21,0,465.28s208.21,465.28,465.28,465.28s465.28-208.21,465.28-465.28
		S722.34,0,465.28,0z M703.74,651.35l-42.11,42.11c-1.89,1.89-4.1,3.25-6.42,4.37c-62.56,41.67-193.88-8.17-304.1-118.39
		C240.89,469.22,191.05,337.9,232.72,275.34c1.12-2.32,2.48-4.53,4.37-6.42l42.11-42.11c12.87-12.86,35.48-11.3,50.26,3.48
		l75.24,75.23c14.78,14.78,16.34,37.4,3.48,50.26l-48.82,48.82c-4.9,4.9-5.32,13.1-0.81,19.6c18.85,27.18,41.42,54.36,67.43,80.37
		s53.19,48.58,80.37,67.43c6.51,4.51,14.7,4.09,19.6-0.81l48.82-48.82c12.87-12.87,35.48-11.3,50.26,3.48l75.23,75.24
		C715.04,615.87,716.61,638.49,703.74,651.35z"/>
</g>
</svg>
