<?xml version="1.0" encoding="utf-8"?>
<!-- Generator: Adobe Illustrator 25.0.0, SVG Export Plug-In . SVG Version: 6.00 Build 0)  -->
<svg version="1.1" id="Layer_1" xmlns="http://www.w3.org/2000/svg" xmlns:xlink="http://www.w3.org/1999/xlink" x="0px" y="0px"
	 viewBox="0 0 930.55 410.45" style="enable-background:new 0 0 930.55 410.45;" xml:space="preserve">
<style type="text/css">
	.st0{fill:#FFFFFF;}
</style>
<g>
	<path class="st0" d="M152.65,112.44c-33.66,0-67.06,0.05-100.45-0.02c-6.84-0.02-13.83,0.39-20.51-0.77
		C11.61,108.17-1.07,92.07,0.07,72.44c1.14-19.76,15.22-33.96,36.41-34.12c62.38-0.5,124.77-0.84,187.13,0.09
		c32.53,0.48,46.54,31.23,28.21,60.83c-44.66,72.12-89.86,143.92-134.79,215.86c-3.54,5.68-6.84,11.52-11.99,20.26
		c38.55,0,74.44-0.09,110.33,0.02c29.26,0.11,46.07,14.36,45.45,38.16c-0.59,22.81-17.06,36.09-45.43,36.16
		c-56.9,0.11-113.8-0.18-170.68,0.18c-17.01,0.11-31.26-4-39.77-19.83c-8.5-15.79-3.88-30.05,5.07-44.27
		c44.82-71.21,89.41-142.61,133.84-214.05C147.29,126.21,152.85,121.44,152.65,112.44z"/>
	<path class="st0" d="M632.33,204.82c0,53.47,0.14,106.94-0.05,160.39c-0.09,28.73-13.29,44.52-36.57,44.66
		c-23.33,0.14-37.71-16.11-37.75-44.02c-0.18-107.62-0.02-215.25-0.11-322.85c-0.02-17.97,6.02-32.82,23.24-39.84
		c15.08-6.16,29.58-3.36,41.48,8.81c8.95,9.15,9.79,20.6,9.79,32.44C632.28,97.88,632.3,151.35,632.33,204.82z"/>
	<g>
		<path class="st0" d="M520.63,279.9c-0.02-30.85-0.09-61.72,0-92.56c0.05-15.95-6.61-28.03-21.13-34.62
			c-13.38-6.06-27.3-5.63-38.32,4.77c-7.38,6.97-12.79,6.31-21.33,2.36c-22.99-10.68-47.82-13.49-72.37-8.34
			c-51.95,10.93-87.45,42.25-101.85,93.38c-14.24,50.54-0.64,95.63,38.3,130.68c39.52,35.59,85.57,43.59,135.61,23.76
			c6.68-2.63,11.83-7.22,19.49,0.64c11.58,11.88,26.55,13.45,41.61,5.79c15.15-7.72,20.35-20.9,20.15-37.39
			C520.38,338.89,520.66,309.38,520.63,279.9z M391.5,335.28c-30.78,0.41-56.38-24.76-56.54-55.56
			c-0.14-30.39,23.62-54.88,54.02-55.61c31.91-0.77,56.65,22.65,57.2,54.13C446.7,309.79,422.66,334.87,391.5,335.28z"/>
	</g>
	<g>
		<path class="st0" d="M801.39,149.72c-72.35-0.48-131.43,57.61-131.68,129.48c-0.25,70.6,58.45,129.91,129.04,130.39
			c71.73,0.5,131.59-58.45,131.79-129.82C930.76,208.96,872.38,150.19,801.39,149.72z M800.64,335.25
			c-30.37,0.34-54.79-23.06-55.97-53.63c-1.2-31.48,22.51-56.86,53.77-57.54c31.57-0.68,56.67,23.12,57.33,54.33
			C856.46,309.34,831.63,334.91,800.64,335.25z"/>
	</g>
</g>
</svg>
