<?xml version="1.0" encoding="utf-8"?>
<!-- Generator: Adobe Illustrator 25.0.0, SVG Export Plug-In . SVG Version: 6.00 Build 0)  -->
<svg version="1.1" id="Layer_1" xmlns="http://www.w3.org/2000/svg" xmlns:xlink="http://www.w3.org/1999/xlink" x="0px" y="0px"
	 viewBox="0 0 409.66 180.7" style="enable-background:new 0 0 409.66 180.7;" xml:space="preserve">
<style type="text/css">
	.st0{fill:#FFFFFF;}
</style>
<path class="st0" d="M67.2,49.5c-14.82,0-29.52,0.02-44.22-0.01c-3.01-0.01-6.09,0.17-9.03-0.34C5.11,47.62-0.47,40.53,0.03,31.89
	c0.5-8.7,6.7-14.95,16.03-15.02c27.46-0.22,54.93-0.37,82.38,0.04c14.32,0.21,20.49,13.75,12.42,26.78
	c-19.66,31.75-39.56,63.36-59.34,95.03c-1.56,2.5-3.01,5.07-5.28,8.92c16.97,0,32.77-0.04,48.57,0.01
	c12.88,0.05,20.28,6.32,20.01,16.8c-0.26,10.04-7.51,15.89-20,15.92c-25.05,0.05-50.1-0.08-75.14,0.08
	c-7.49,0.05-13.76-1.76-17.51-8.73c-3.74-6.95-1.71-13.23,2.23-19.49c19.73-31.35,39.36-62.78,58.92-94.23
	C64.84,55.56,67.29,53.46,67.2,49.5z"/>
<path class="st0" d="M278.37,90.17c0,23.54,0.06,47.08-0.02,70.61c-0.04,12.65-5.85,19.6-16.1,19.66
	c-10.27,0.06-16.6-7.09-16.62-19.38c-0.08-47.38-0.01-94.76-0.05-142.13c-0.01-7.91,2.65-14.45,10.23-17.54
	c6.64-2.71,13.02-1.48,18.26,3.88c3.94,4.03,4.31,9.07,4.31,14.28C278.35,43.09,278.36,66.63,278.37,90.17z"/>
<g>
	<path class="st0" d="M229.2,123.22c-0.01-13.58-0.04-27.17,0-40.75c0.02-7.02-2.91-12.34-9.3-15.24
		c-5.89-2.67-12.02-2.48-16.87,2.1c-3.25,3.07-5.63,2.78-9.39,1.04c-10.12-4.7-21.05-5.94-31.86-3.67
		c-22.87,4.81-38.5,18.6-44.84,41.11c-6.27,22.25-0.28,42.1,16.86,57.53c17.4,15.67,37.67,19.19,59.7,10.46
		c2.94-1.16,5.21-3.18,8.58,0.28c5.1,5.23,11.69,5.92,18.32,2.55c6.67-3.4,8.96-9.2,8.87-16.46
		C229.09,149.19,229.21,136.2,229.2,123.22z M172.35,147.6c-13.55,0.18-24.82-10.9-24.89-24.46c-0.06-13.38,10.4-24.16,23.78-24.48
		c14.05-0.34,24.94,9.97,25.18,23.83C196.65,136.38,186.07,147.42,172.35,147.6z"/>
</g>
<g>
	<path class="st0" d="M352.8,65.91c-31.85-0.21-57.86,25.36-57.97,57c-0.11,31.08,25.73,57.19,56.81,57.4
		c31.58,0.22,57.93-25.73,58.02-57.15C409.75,91.99,384.05,66.12,352.8,65.91z M352.47,147.59c-13.37,0.15-24.12-10.15-24.64-23.61
		c-0.53-13.86,9.91-25.03,23.67-25.33c13.9-0.3,24.95,10.18,25.24,23.92C377.04,136.18,366.11,147.44,352.47,147.59z"/>
</g>
</svg>
